<svg xml:space="preserve" viewBox="0 0 1080 1080" height="1080" width="1080" version="1.1" xmlns:xlink="http://www.w3.org/1999/xlink" xmlns="http://www.w3.org/2000/svg">
<desc>Created with Fabric.js 5.2.4</desc>
<defs>
</defs>
<rect fill="transparent" height="100%" width="100%" y="0" x="0"></rect>
<g id="6b452809-70c5-4323-862f-59e6337a55b9" transform="matrix(1 0 0 1 540 540)">
<rect height="1080" width="1080" ry="0" rx="0" y="-540" x="-540" style="stroke: none; stroke-width: 1; stroke-dasharray: none; stroke-linecap: butt; stroke-dashoffset: 0; stroke-linejoin: miter; stroke-miterlimit: 4; fill: rgb(255,255,255); fill-rule: nonzero; opacity: 1; visibility: hidden;"></rect>
</g>
<g id="0c5be399-dac0-4697-80df-24ff82b192e5" transform="matrix(1 0 0 1 540 540)">
</g>
<g id="f1d57be5-ab39-43b6-8c42-ccb88e9956ad" transform="matrix(2.61 0 0 2.61 540 499.61)">
<path stroke-linecap="round" d="M 107.4 192 L 96.6 192 C 96.26862915010152 192 96 192.26862915010153 96 192.6 L 96 215.4 C 96 215.73137084989847 95.73137084989848 216 95.4 216 L 84.6 216 C 84.26862915010152 216 84 216.26862915010153 84 216.6 L 84 227.4 C 84 227.73137084989847 83.73137084989848 228 83.4 228 L 72.6 228 C 72.26862915010152 228 72 228.26862915010153 72 228.6 L 72 239.4 C 72 239.73137084989847 71.73137084989848 240 71.4 240 L 60.6 240 C 60.268629150101525 240 60 240.26862915010153 60 240.6 L 60 251.4 C 60 251.73137084989847 59.731370849898475 252 59.4 252 L 48.61 252 C 48.27862915010152 252 48.01 251.73137084989847 48.01 251.4 L 48.01 228.6 C 48.01 228.26862915010153 48.27862915010152 228 48.61 228 L 59.4 228 C 59.731370849898475 228 60 227.73137084989847 60 227.4 L 60 192.6 C 60 192.26862915010153 60.268629150101525 192 60.6 192 L 71.4 192 C 71.73137084989848 192 72 191.73137084989847 72 191.4 L 72 156.61 C 72 156.4508701060963 71.93678589578076 156.2982577583569 71.82426406871194 156.18573593128806 C 71.71174224164312 156.07321410421926 71.55912989390373 156.01 71.4 156.01 L 60.6 156.01 C 60.268629150101525 156.01 60 155.74137084989846 60 155.41 L 60 120.6 C 60 120.26862915010152 59.731370849898475 120 59.4 120 L 48.6 120 C 48.268629150101525 120 48 119.73137084989848 48 119.4 L 48 96.6 C 48 96.26862915010152 47.731370849898475 96 47.4 96 L 36.61 96 C 36.27862915010152 96 36.01 95.73137084989848 36.01 95.4 L 36.01 72.61 C 36.01 72.27862915010152 36.27862915010152 72.01 36.61 72.01 L 47.41 72.01 C 47.74137084989847 72.01 48.01 72.27862915010152 48.01 72.61 L 48.01 83.39 C 48.01 83.72137084989848 48.27862915010152 83.99 48.61 83.99 L 59.41 83.99 C 59.56912989390373 83.99 59.721742241643106 84.05321410421925 59.83426406871193 84.16573593128807 C 59.94678589578075 84.27825775835689 60.01 84.43087010609628 60.01 84.59 L 60.01 95.39 C 60.01 95.72137084989848 60.27862915010152 95.99 60.61 95.99 L 71.41 95.99 C 71.56912989390372 95.99 71.72174224164311 96.05321410421924 71.83426406871193 96.16573593128807 C 71.94678589578076 96.27825775835689 72.01 96.43087010609628 72.01 96.59 L 72.01 107.39 C 72.01 107.72137084989848 72.27862915010152 107.99 72.61 107.99 L 83.41 107.99 C 83.56912989390372 107.99 83.72174224164311 108.05321410421924 83.83426406871193 108.16573593128807 C 83.94678589578076 108.27825775835689 84.01 108.43087010609628 84.01 108.59 L 84.01 119.39 C 84.01 119.72137084989848 84.27862915010152 119.99 84.61 119.99 L 95.41 119.99 C 95.56912989390372 119.99 95.72174224164311 120.05321410421924 95.83426406871193 120.16573593128807 C 95.94678589578076 120.27825775835689 96.01 120.43087010609628 96.01 120.59 L 96.01 143.39 C 96.01 143.5491298939037 96.07321410421925 143.7017422416431 96.18573593128806 143.81426406871194 C 96.29825775835688 143.92678589578074 96.45087010609627 143.99 96.61 143.99 L 131.41 143.99 C 131.56912989390372 143.99 131.7217422416431 143.92678589578074 131.83426406871192 143.81426406871194 C 131.94678589578075 143.7017422416431 132.01 143.5491298939037 132.01 143.39 L 132.01 132.6 C 132.01 132.44087010609627 132.07321410421926 132.28825775835688 132.18573593128806 132.17573593128807 C 132.2982577583569 132.06321410421924 132.4508701060963 132 132.61 132 L 143.41 132 C 143.74137084989846 132 144.01 131.73137084989847 144.01 131.4 L 144.01 120.6 C 144.01 120.44087010609627 144.07321410421926 120.28825775835688 144.18573593128806 120.17573593128806 C 144.2982577583569 120.06321410421924 144.4508701060963 120 144.61 120 L 167.41 120 C 167.74137084989846 120 168.01 119.73137084989848 168.01 119.4 L 168.01 108.6 C 168.01 108.44087010609627 168.07321410421926 108.28825775835688 168.18573593128806 108.17573593128806 C 168.2982577583569 108.06321410421924 168.4508701060963 108 168.61 108 L 179.41 108 C 179.74137084989846 108 180.01 107.73137084989848 180.01 107.4 L 180.01 96.6 C 180.01 96.44087010609627 180.07321410421926 96.28825775835688 180.18573593128806 96.17573593128806 C 180.2982577583569 96.06321410421924 180.4508701060963 96 180.61 96 L 203.4 96 C 203.73137084989847 96 204 95.73137084989848 204 95.4 L 204 48.6 C 204 48.268629150101525 203.73137084989847 48 203.4 48 L 192.61 48 C 192.4508701060963 48.00000000000001 192.2982577583569 47.93678589578076 192.18573593128806 47.82426406871193 C 192.07321410421923 47.711742241643115 192.01 47.55912989390373 192.01 47.4 L 192.01 24.6 C 192.01 24.44087010609627 192.07321410421923 24.288257758356885 192.18573593128806 24.175735931288063 C 192.2982577583569 24.06321410421924 192.4508701060963 23.999999999999993 192.61 24 L 215.41 24 C 215.74137084989846 24.000000000000004 216.01 24.26862915010153 216.01 24.6 L 216.01 35.38 C 216.01 35.539129893903734 216.07321410421926 35.69174224164311 216.18573593128806 35.80426406871194 C 216.2982577583569 35.916785895780755 216.4508701060963 35.980000000000004 216.61 35.98 L 227.41 35.98 C 227.74137084989846 35.98 228.01 36.24862915010152 228.01 36.58 L 228.01 47.39 C 228.01 47.54912989390373 228.07321410421923 47.70174224164312 228.18573593128806 47.814264068711935 C 228.2982577583569 47.92678589578076 228.4508701060963 47.99000000000001 228.61 47.99 L 239.41 47.99 C 239.74137084989846 47.99 240.01 48.25862915010153 240.01 48.59 L 240.01 59.39 C 240.01 59.54912989390373 240.07321410421923 59.70174224164312 240.18573593128806 59.814264068711935 C 240.2982577583569 59.92678589578076 240.4508701060963 59.99000000000001 240.61 59.99 L 251.41 59.99 C 251.74137084989846 59.99 252.01 60.25862915010153 252.01 60.59 L 252.01 71.39 C 252.01 71.54912989390373 252.07321410421926 71.70174224164312 252.18573593128806 71.81426406871194 C 252.2982577583569 71.92678589578075 252.4508701060963 71.99 252.61 71.99 L 263.41 71.99 C 263.7413708498985 71.99000000000001 264.01 72.25862915010154 264.01 72.59 L 264.01 83.4 C 264.01 83.55912989390373 264.07321410421923 83.71174224164312 264.1857359312881 83.82426406871194 C 264.2982577583569 83.93678589578076 264.45087010609626 84 264.61 84 L 359.41 84 C 359.7413708498985 84.00000000000001 360.01 84.26862915010153 360.01 84.6 L 360.01 95.39 C 360.01 95.54912989390373 360.07321410421923 95.70174224164312 360.1857359312881 95.81426406871194 C 360.2982577583569 95.92678589578075 360.45087010609626 95.99 360.61 95.99 L 383.41 95.99 C 383.7413708498985 95.99000000000001 384.01 96.25862915010154 384.01 96.59 L 384.01 107.39 C 384.01 107.54912989390373 384.07321410421923 107.70174224164312 384.1857359312881 107.81426406871194 C 384.2982577583569 107.92678589578075 384.45087010609626 107.99 384.61 107.99 L 407.41 107.99 C 407.7413708498985 107.99000000000001 408.01 108.25862915010154 408.01 108.59 L 408.01 119.39 C 408.01 119.54912989390373 408.07321410421923 119.70174224164312 408.1857359312881 119.81426406871194 C 408.2982577583569 119.92678589578075 408.45087010609626 119.99 408.61 119.99 L 419.4 119.99 C 419.55912989390373 119.99 419.7117422416431 120.05321410421924 419.8242640687119 120.16573593128805 C 419.93678589578076 120.27825775835689 420 120.43087010609628 420 120.59 L 420 143.4 C 420 143.55912989390373 419.93678589578076 143.71174224164312 419.8242640687119 143.82426406871193 C 419.7117422416431 143.93678589578076 419.55912989390373 144 419.4 144 L 408.6 144 C 408.44087010609627 144 408.2882577583569 144.06321410421924 408.1757359312881 144.17573593128807 C 408.06321410421924 144.28825775835688 408 144.44087010609627 408 144.6 L 408 155.4 C 408 155.55912989390373 407.93678589578076 155.71174224164312 407.8242640687119 155.82426406871193 C 407.7117422416431 155.93678589578076 407.55912989390373 156 407.4 156 L 396.61 156 C 396.45087010609626 156 396.2982577583569 156.06321410421924 396.1857359312881 156.17573593128807 C 396.07321410421923 156.28825775835688 396.01 156.44087010609627 396.01 156.6 L 396.01 167.4 C 396.01 167.73137084989847 395.7413708498985 167.99999999999997 395.41 168 L 384.6 168 C 384.44087010609627 168 384.2882577583569 168.06321410421924 384.1757359312881 168.17573593128807 C 384.06321410421924 168.28825775835688 384 168.44087010609627 384 168.6 L 384 179.4 C 384 179.55912989390373 383.93678589578076 179.71174224164312 383.8242640687119 179.82426406871193 C 383.7117422416431 179.93678589578076 383.55912989390373 180 383.4 180 L 372.61 180 C 372.45087010609626 180 372.2982577583569 180.06321410421924 372.1857359312881 180.17573593128807 C 372.07321410421923 180.28825775835688 372.01 180.44087010609627 372.01 180.6 L 372.01 191.39 C 372.01 191.72137084989845 371.7413708498985 191.98999999999998 371.41 191.99 L 336.6 191.99 C 336.44087010609627 191.99 336.2882577583569 192.05321410421925 336.1757359312881 192.16573593128808 C 336.06321410421924 192.2782577583569 336 192.43087010609628 336 192.59 L 336 203.4 C 336 203.55912989390373 335.93678589578076 203.71174224164312 335.8242640687119 203.82426406871193 C 335.7117422416431 203.93678589578076 335.55912989390373 204 335.4 204 L 312.6 204 C 312.44087010609627 204 312.2882577583569 204.06321410421924 312.1757359312881 204.17573593128807 C 312.06321410421924 204.28825775835688 312 204.44087010609627 312 204.6 L 312 251.4 C 312 251.55912989390373 311.93678589578076 251.71174224164312 311.8242640687119 251.82426406871193 C 311.7117422416431 251.93678589578076 311.55912989390373 252 311.4 252 L 300.6 252 C 300.44087010609627 252 300.2882577583569 251.93678589578076 300.1757359312881 251.82426406871193 C 300.06321410421924 251.71174224164312 300 251.55912989390373 300 251.4 L 300 240.6 C 300 240.44087010609627 299.93678589578076 240.28825775835688 299.8242640687119 240.17573593128807 C 299.7117422416431 240.06321410421924 299.55912989390373 240 299.4 240 L 288.6 240 C 288.44087010609627 240 288.2882577583569 239.93678589578076 288.1757359312881 239.82426406871193 C 288.06321410421924 239.71174224164312 288 239.55912989390373 288 239.4 L 288 228.6 C 288 228.44087010609627 287.93678589578076 228.28825775835688 287.8242640687119 228.17573593128807 C 287.7117422416431 228.06321410421924 287.55912989390373 228 287.4 228 L 276.6 228 C 276.44087010609627 228 276.2882577583569 227.93678589578076 276.1757359312881 227.82426406871193 C 276.06321410421924 227.71174224164312 276 227.55912989390373 276 227.4 L 276 216.6 C 276 216.44087010609627 275.93678589578076 216.28825775835688 275.8242640687119 216.17573593128807 C 275.7117422416431 216.06321410421924 275.55912989390373 216 275.4 216 L 264.6 216 C 264.44087010609627 216 264.2882577583569 215.93678589578076 264.1757359312881 215.82426406871193 C 264.06321410421924 215.71174224164312 264 215.55912989390373 264 215.4 L 264 204.6 C 264 204.44087010609627 263.93678589578076 204.28825775835688 263.8242640687119 204.17573593128807 C 263.7117422416431 204.06321410421924 263.55912989390373 204 263.4 204 L 252.6 204 C 252.26862915010153 204 252 204.26862915010153 252 204.6 L 252 215.4 C 252 215.73137084989847 251.73137084989847 216 251.4 216 L 240.6 216 C 240.26862915010153 216 240 216.26862915010153 240 216.6 L 240 227.4 C 240 227.73137084989847 239.73137084989847 228 239.4 228 L 228.6 228 C 228.26862915010153 228 228 228.26862915010153 228 228.6 L 228 239.4 C 228 239.73137084989847 227.73137084989847 240 227.4 240 L 216.6 240 C 216.26862915010153 240 216 240.26862915010153 216 240.6 L 216 251.4 C 216 251.73137084989847 215.73137084989847 252 215.4 252 L 204.6 252 C 204.26862915010153 252 204 252.26862915010153 204 252.6 L 204 263.4 C 204 263.55912989390373 203.93678589578076 263.7117422416431 203.82426406871193 263.8242640687119 C 203.71174224164312 263.93678589578076 203.55912989390373 264 203.4 264 L 192.6 264 C 192.44087010609627 264 192.28825775835688 263.93678589578076 192.17573593128807 263.8242640687119 C 192.06321410421924 263.7117422416431 192 263.55912989390373 192 263.4 L 192 228.59 C 192 228.25862915010154 192.26862915010153 227.99 192.6 227.99 L 203.4 227.99 C 203.55912989390373 227.99 203.71174224164312 227.92678589578074 203.82426406871193 227.81426406871194 C 203.93678589578076 227.7017422416431 204 227.5491298939037 204 227.39 L 204 204.6 C 204 204.26862915010153 203.73137084989847 204 203.4 204 L 168.6 204 C 168.26862915010153 204 168 203.73137084989847 168 203.4 L 168 192.6 C 168 192.26862915010153 167.73137084989847 192 167.4 192 L 132.59 192 C 132.25862915010154 192 131.99 191.73137084989847 131.99 191.4 L 131.99 180.6 C 131.99 180.44087010609627 131.92678589578074 180.28825775835688 131.81426406871194 180.17573593128807 C 131.7017422416431 180.06321410421924 131.5491298939037 180 131.39 180 L 108.6 180 C 108.26862915010152 180 108 180.26862915010153 108 180.6 L 108 191.4 C 108 191.73137084989847 107.73137084989848 192 107.4 192 Z M 252.02 109.03 C 252.02 108.75417485056687 251.91042888602 108.48964678115193 251.715391052434 108.29460894756598 C 251.52035321884804 108.09957111398002 251.25582514943312 107.99 250.98 107.99 L 241.04 107.99 C 240.46562386017598 107.99 240 108.45562386017598 240 109.03 L 240 130.95 C 240 131.22582514943312 240.10957111398002 131.49035321884804 240.30460894756598 131.685391052434 C 240.49964678115194 131.88042888601996 240.76417485056686 131.99 241.04 131.99 L 250.98 131.99 C 251.25582514943312 131.99 251.52035321884807 131.88042888601998 251.71539105243403 131.68539105243403 C 251.91042888602 131.49035321884807 252.02 131.22582514943312 252.02 130.95 L 252.02 109.03 Z M 276.0211 109.1495 C 276.02054353653625 108.8338922255695 275.89463491059263 108.53143203277503 275.67107268712783 108.30865746247572 C 275.44751046366304 108.0858828921764 275.1446077726961 107.9610425536747 274.829 107.9616 L 265.149 107.9785 C 264.49181984150545 107.9796588016194 263.9599944721619 108.51331974972742 263.9611 109.1705 L 263.9989 130.8305 C 263.99945646346373 131.1461077744305 264.12536508940735 131.44856796722496 264.34892731287215 131.6713425375243 C 264.5724895363369 131.89411710782363 264.8753922273039 132.01895744632532 265.191 132.0184 L 274.871 132.0015 C 275.52818015849454 132.0003411983806 276.0600055278381 131.4666802502726 276.0589 130.8095 L 276.0211 109.1495 Z M 300.0211 109.1495 C 300.0205435406964 108.8365443891764 299.8956884844852 108.53662773308643 299.67400162389896 108.315728525672 C 299.45231476331264 108.09482931825757 299.1519556090596 107.97104254950548 298.839 107.9716 L 289.139 107.9885 C 288.48734268595024 107.98965879318229 287.95999446403505 108.51884259342319 287.9611 109.1705 L 287.9989 130.8305 C 287.9994564593036 131.1434556108236 288.12431151551476 131.44337226691357 288.345998376101 131.664271474328 C 288.56768523668734 131.88517068174244 288.8680443909404 132.0089574504945 289.181 132.0084 L 298.881 131.9915 C 299.53265731404974 131.99034120681773 300.06000553596493 131.46115740657683 300.0589 130.8095 L 300.0211 109.1495 Z M 360.0288 108.9605 C 360.0292512716625 108.70854421170445 359.92959480493244 108.46672865366537 359.7517539699586 108.28825019469186 C 359.57391313498476 108.10977173571834 359.3324557897393 108.00925046484558 359.0805 108.0088 L 348.9605 107.9912 C 348.70854421170446 107.99074872833754 348.4667286536654 108.09040519506758 348.2882501946919 108.26824603004138 C 348.10977173571837 108.4460868650152 348.0092504648456 108.68754421026067 348.0088 108.9395 L 347.9912 119.0595 C 347.9907487283375 119.31145578829555 348.09040519506755 119.55327134633463 348.2682460300414 119.73174980530814 C 348.4460868650152 119.91022826428166 348.6875442102607 120.01074953515442 348.9395 120.0112 L 359.0595 120.0288 C 359.3114557882956 120.02925127166246 359.5532713463346 119.9295948049324 359.73174980530814 119.7517539699586 C 359.9102282642816 119.57391313498478 360.0107495351544 119.33245578973931 360.0112 119.0805 L 360.0288 108.9605 Z M 264.0483 133.2505 C 264.04888397796697 132.91102274014906 263.91458696243 132.58521765552848 263.67495286954056 132.3447584022002 C 263.4353187766511 132.10429914887192 263.1099772615746 131.9688829751167 262.7705 131.9683 L 253.2705 131.9517 C 252.93102274014907 131.95111602203298 252.60521765552846 132.08541303756996 252.36475840220018 132.32504713045944 C 252.1242991488719 132.5646812233489 251.9888829751167 132.89002273842542 251.9883 133.2295 L 251.9717 142.7295 C 251.971116022033 143.06897725985093 252.10541303756997 143.39478234447154 252.34504713045945 143.63524159779982 C 252.58468122334892 143.8757008511281 252.91002273842543 144.0111170248833 253.2495 144.0117 L 262.7495 144.0283 C 263.08897725985094 144.028883977967 263.4147823444715 143.89458696243003 263.65524159779983 143.65495286954055 C 263.89570085112814 143.41531877665108 264.0311170248833 143.08997726157457 264.0317 142.7505 L 264.0483 133.2505 Z M 288.0336 133.2789 C 288.0309536835339 132.53335280893813 287.42444735290155 131.93109967838035 286.6789 131.9337 L 277.2989 131.9664 C 276.55335280893814 131.9690463164661 275.9510996783804 132.57555264709845 275.9537 133.3211 L 275.9864 142.7011 C 275.9890463164661 143.44664719106186 276.59555264709843 144.04890032161964 277.3411 144.0463 L 286.7211 144.0136 C 287.46664719106184 144.01095368353393 288.06890032161965 143.40444735290157 288.0663 142.6589 L 288.0336 133.2789 Z M 312.0213 132.9895 C 312.0208230313168 132.71897905048814 311.9129013519365 132.45972745666433 311.7212765889667 132.2687778249792 C 311.5296518259969 132.07782819329407 311.2700209480252 131.97082218886405 310.9995 131.9713 L 301.0195 131.9887 C 300.7489790504881 131.9891769686832 300.4897274566643 132.09709864806345 300.2987778249792 132.2887234110333 C 300.10782819329404 132.4803481740031 300.00082218886405 132.7399790519748 300.0013 133.0105 L 300.0187 142.9905 C 300.0191769686832 143.26102094951187 300.12709864806345 143.5202725433357 300.31872341103326 143.71122217502082 C 300.5103481740031 143.90217180670595 300.7699790519748 144.00917781113597 301.0405 144.0087 L 311.0205 143.9913 C 311.2910209495119 143.99082303131678 311.5502725433357 143.88290135193654 311.7412221750208 143.69127658896673 C 311.932171806706 143.49965182599692 312.03917781113597 143.24002094802518 312.0387 142.9695 L 312.0213 132.9895 Z M 324.77 132 C 324.3447407426303 132 324 132.3447407426303 324 132.77 L 324 143.23 C 324 143.6552592573697 323.6552592573697 144 323.23 144 L 312.77 144 C 312.3447407426303 144 312 144.3447407426303 312 144.77 L 312 155.23 C 312 155.6552592573697 311.6552592573697 156 311.23 156 L 300.77 156 C 300.3447407426303 156 300 156.3447407426303 300 156.77 L 300 167.22 C 300 167.6452592573697 299.6552592573697 167.99 299.23 167.99 L 240.77 167.99 C 240.3447407426303 167.99 240 168.3347407426303 240 168.76 L 240 179.23 C 240 179.43421669717645 239.91887523291862 179.63006921010864 239.77447222151363 179.77447222151363 C 239.63006921010864 179.91887523291862 239.43421669717645 180 239.23 180 L 204.79 180 C 204.3647407426303 180 204.02 180.3447407426303 204.02 180.77 L 204.02 191.22 C 204.02 191.6452592573697 204.3647407426303 191.99 204.79 191.99 L 323.24 191.99 C 323.6652592573697 191.99 324.01 191.6452592573697 324.01 191.22 L 324.01 180.8 C 324.01 180.3747407426303 324.35474074263027 180.03 324.78 180.03 L 371.24 180.03 C 371.6652592573697 180.03 372.01 179.6852592573697 372.01 179.26 L 372.01 168.77 C 372.01 168.3447407426303 371.6652592573697 168 371.24 168 L 348.75 168 C 348.3247407426303 168 347.98 167.6552592573697 347.98 167.23 L 347.98 156.77 C 347.98 156.56578330282355 347.89887523291867 156.36993078989133 347.75447222151365 156.22552777848634 C 347.61006921010863 156.08112476708135 347.4142166971764 156 347.21 156 L 336.78 156 C 336.35474074263027 156 336.01 155.6552592573697 336.01 155.23 L 336.01 144.77 C 336.01 144.3447407426303 336.35474074263027 144 336.78 144 L 347.24 144 C 347.6652592573697 144 348.01 144.3447407426303 348.01 144.77 L 348.01 155.26 C 348.01 155.6852592573697 348.35474074263027 156.03 348.78 156.03 L 395.25 156.03 C 395.6752592573697 156.03 396.02 155.6852592573697 396.02 155.26 L 396.02 144.77 C 396.02 144.56578330282355 396.10112476708133 144.36993078989133 396.24552777848635 144.22552777848634 C 396.38993078989137 144.08112476708135 396.5857833028236 144 396.79 144 L 407.24 144 C 407.6652592573697 144 408.01 143.6552592573697 408.01 143.23 L 408.01 132.77 C 408.01 132.3447407426303 407.6652592573697 132 407.24 132 L 324.77 132 Z" transform="translate(-228, -144)" style="stroke: rgb(0,0,0); stroke-width: 0; stroke-dasharray: none; stroke-linecap: butt; stroke-dashoffset: 0; stroke-linejoin: miter; stroke-miterlimit: 4; fill: rgb(125,125,125); fill-rule: nonzero; opacity: 1;"></path>
</g>
</svg>